<svg id="visual" viewBox="0 0 900 600" width="900" height="600" xmlns="http://www.w3.org/2000/svg" xmlns:xlink="http://www.w3.org/1999/xlink" version="1.1"><path d="M0 85L30 83C60 81 120 77 180 73C240 69 300 65 360 66C420 67 480 73 540 79C600 85 660 91 720 93C780 95 840 93 870 92L900 91L900 0L870 0C840 0 780 0 720 0C660 0 600 0 540 0C480 0 420 0 360 0C300 0 240 0 180 0C120 0 60 0 30 0L0 0Z" fill="#151515"></path><path d="M0 253L30 251C60 249 120 245 180 244C240 243 300 245 360 248C420 251 480 255 540 266C600 277 660 295 720 296C780 297 840 281 870 273L900 265L900 89L870 90C840 91 780 93 720 91C660 89 600 83 540 77C480 71 420 65 360 64C300 63 240 67 180 71C120 75 60 79 30 81L0 83Z" fill="#111111"></path><path d="M0 331L30 326C60 321 120 311 180 308C240 305 300 309 360 317C420 325 480 337 540 346C600 355 660 361 720 360C780 359 840 351 870 347L900 343L900 263L870 271C840 279 780 295 720 294C660 293 600 275 540 264C480 253 420 249 360 246C300 243 240 241 180 242C120 243 60 247 30 249L0 251Z" fill="#0c0c0c"></path><path d="M0 445L30 442C60 439 120 433 180 426C240 419 300 411 360 418C420 425 480 447 540 456C600 465 660 461 720 458C780 455 840 453 870 452L900 451L900 341L870 345C840 349 780 357 720 358C660 359 600 353 540 344C480 335 420 323 360 315C300 307 240 303 180 306C120 309 60 319 30 324L0 329Z" fill="#060606"></path><path d="M0 601L30 601C60 601 120 601 180 601C240 601 300 601 360 601C420 601 480 601 540 601C600 601 660 601 720 601C780 601 840 601 870 601L900 601L900 449L870 450C840 451 780 453 720 456C660 459 600 463 540 454C480 445 420 423 360 416C300 409 240 417 180 424C120 431 60 437 30 440L0 443Z" fill="#000000"></path></svg>