<svg id="visual" viewBox="0 0 900 600" width="900" height="600" xmlns="http://www.w3.org/2000/svg" xmlns:xlink="http://www.w3.org/1999/xlink" version="1.1"><path d="M0 115L50 111C100 107 200 99 300 100C400 101 500 111 600 118C700 125 800 129 850 131L900 133L900 0L850 0C800 0 700 0 600 0C500 0 400 0 300 0C200 0 100 0 50 0L0 0Z" fill="#afc1de"></path><path d="M0 277L50 282C100 287 200 297 300 308C400 319 500 331 600 320C700 309 800 275 850 258L900 241L900 131L850 129C800 127 700 123 600 116C500 109 400 99 300 98C200 97 100 105 50 109L0 113Z" fill="#9db3d7"></path><path d="M0 445L50 451C100 457 200 469 300 471C400 473 500 465 600 458C700 451 800 445 850 442L900 439L900 239L850 256C800 273 700 307 600 318C500 329 400 317 300 306C200 295 100 285 50 280L0 275Z" fill="#8ba6cf"></path><path d="M0 547L50 547C100 547 200 547 300 546C400 545 500 543 600 538C700 533 800 525 850 521L900 517L900 437L850 440C800 443 700 449 600 456C500 463 400 471 300 469C200 467 100 455 50 449L0 443Z" fill="#778fb5"></path><path d="M0 601L50 601C100 601 200 601 300 601C400 601 500 601 600 601C700 601 800 601 850 601L900 601L900 515L850 519C800 523 700 531 600 536C500 541 400 543 300 544C200 545 100 545 50 545L0 545Z" fill="#63799b"></path></svg>